<svg width="1363" height="163" viewBox="0 0 1363 163" fill="none" xmlns="http://www.w3.org/2000/svg">
<path d="M0 15C0 6.71573 6.71573 0 15 0H37V163H15C6.71573 163 0 156.284 0 148V15Z" fill="#424242"/>
<rect width="1097" height="163" transform="translate(37)" fill="#F0F0F0"/>
<path d="M96.1289 43.9375H99.1055L103.488 56.4648L107.871 43.9375H110.848L104.684 61H102.293L96.1289 43.9375ZM94.5234 43.9375H97.4883L98.0273 56.1484V61H94.5234V43.9375ZM109.488 43.9375H112.465V61H108.949V56.1484L109.488 43.9375ZM118.898 48.3203V61H115.512V48.3203H118.898ZM115.301 45.0156C115.301 44.5234 115.473 44.1172 115.816 43.7969C116.16 43.4766 116.621 43.3164 117.199 43.3164C117.77 43.3164 118.227 43.4766 118.57 43.7969C118.922 44.1172 119.098 44.5234 119.098 45.0156C119.098 45.5078 118.922 45.9141 118.57 46.2344C118.227 46.5547 117.77 46.7148 117.199 46.7148C116.621 46.7148 116.16 46.5547 115.816 46.2344C115.473 45.9141 115.301 45.5078 115.301 45.0156ZM124.992 51.0273V61H121.617V48.3203H124.781L124.992 51.0273ZM124.5 54.2148H123.586C123.586 53.2773 123.707 52.4336 123.949 51.6836C124.191 50.9258 124.531 50.2812 124.969 49.75C125.406 49.2109 125.926 48.8008 126.527 48.5195C127.137 48.2305 127.816 48.0859 128.566 48.0859C129.16 48.0859 129.703 48.1719 130.195 48.3438C130.688 48.5156 131.109 48.7891 131.461 49.1641C131.82 49.5391 132.094 50.0352 132.281 50.6523C132.477 51.2695 132.574 52.0234 132.574 52.9141V61H129.176V52.9023C129.176 52.3398 129.098 51.9023 128.941 51.5898C128.785 51.2773 128.555 51.0586 128.25 50.9336C127.953 50.8008 127.586 50.7344 127.148 50.7344C126.695 50.7344 126.301 50.8242 125.965 51.0039C125.637 51.1836 125.363 51.4336 125.145 51.7539C124.934 52.0664 124.773 52.4336 124.664 52.8555C124.555 53.2773 124.5 53.7305 124.5 54.2148ZM142.629 58.2344V43H146.027V61H142.969L142.629 58.2344ZM134.613 54.8125V54.5664C134.613 53.5977 134.723 52.7188 134.941 51.9297C135.16 51.1328 135.48 50.4492 135.902 49.8789C136.324 49.3086 136.844 48.8672 137.461 48.5547C138.078 48.2422 138.781 48.0859 139.57 48.0859C140.312 48.0859 140.961 48.2422 141.516 48.5547C142.078 48.8672 142.555 49.3125 142.945 49.8906C143.344 50.4609 143.664 51.1367 143.906 51.918C144.148 52.6914 144.324 53.5391 144.434 54.4609V55C144.324 55.8828 144.148 56.7031 143.906 57.4609C143.664 58.2188 143.344 58.8828 142.945 59.4531C142.555 60.0156 142.078 60.4531 141.516 60.7656C140.953 61.0781 140.297 61.2344 139.547 61.2344C138.758 61.2344 138.055 61.0742 137.438 60.7539C136.828 60.4336 136.312 59.9844 135.891 59.4062C135.477 58.8281 135.16 58.1484 134.941 57.3672C134.723 56.5859 134.613 55.7344 134.613 54.8125ZM137.988 54.5664V54.8125C137.988 55.3359 138.027 55.8242 138.105 56.2773C138.191 56.7305 138.328 57.1328 138.516 57.4844C138.711 57.8281 138.961 58.0977 139.266 58.293C139.578 58.4805 139.957 58.5742 140.402 58.5742C140.98 58.5742 141.457 58.4453 141.832 58.1875C142.207 57.9219 142.492 57.5586 142.688 57.0977C142.891 56.6367 143.008 56.1055 143.039 55.5039V53.9688C143.016 53.4766 142.945 53.0352 142.828 52.6445C142.719 52.2461 142.555 51.9062 142.336 51.625C142.125 51.3438 141.859 51.125 141.539 50.9688C141.227 50.8125 140.855 50.7344 140.426 50.7344C139.988 50.7344 139.613 50.8359 139.301 51.0391C138.988 51.2344 138.734 51.5039 138.539 51.8477C138.352 52.1914 138.211 52.5977 138.117 53.0664C138.031 53.5273 137.988 54.0273 137.988 54.5664ZM168.375 52.082V58.8438C168.109 59.1641 167.699 59.5117 167.145 59.8867C166.59 60.2539 165.875 60.5703 165 60.8359C164.125 61.1016 163.066 61.2344 161.824 61.2344C160.723 61.2344 159.719 61.0547 158.812 60.6953C157.906 60.3281 157.125 59.793 156.469 59.0898C155.82 58.3867 155.32 57.5273 154.969 56.5117C154.617 55.4883 154.441 54.3203 154.441 53.0078V51.9414C154.441 50.6289 154.609 49.4609 154.945 48.4375C155.289 47.4141 155.777 46.5508 156.41 45.8477C157.043 45.1445 157.797 44.6094 158.672 44.2422C159.547 43.875 160.52 43.6914 161.59 43.6914C163.074 43.6914 164.293 43.9336 165.246 44.418C166.199 44.8945 166.926 45.5586 167.426 46.4102C167.934 47.2539 168.246 48.2227 168.363 49.3164H164.953C164.867 48.7383 164.703 48.2344 164.461 47.8047C164.219 47.375 163.871 47.0391 163.418 46.7969C162.973 46.5547 162.395 46.4336 161.684 46.4336C161.098 46.4336 160.574 46.5547 160.113 46.7969C159.66 47.0312 159.277 47.3789 158.965 47.8398C158.652 48.3008 158.414 48.8711 158.25 49.5508C158.086 50.2305 158.004 51.0195 158.004 51.918V53.0078C158.004 53.8984 158.09 54.6875 158.262 55.375C158.434 56.0547 158.688 56.6289 159.023 57.0977C159.367 57.5586 159.789 57.9062 160.289 58.1406C160.789 58.375 161.371 58.4922 162.035 58.4922C162.59 58.4922 163.051 58.4453 163.418 58.3516C163.793 58.2578 164.094 58.1445 164.32 58.0117C164.555 57.8711 164.734 57.7383 164.859 57.6133V54.5898H161.648V52.082H168.375ZM178.5 57.9648V48.3203H181.875V61H178.699L178.5 57.9648ZM178.875 55.3633L179.871 55.3398C179.871 56.1836 179.773 56.9688 179.578 57.6953C179.383 58.4141 179.09 59.0391 178.699 59.5703C178.309 60.0938 177.816 60.5039 177.223 60.8008C176.629 61.0898 175.93 61.2344 175.125 61.2344C174.508 61.2344 173.938 61.1484 173.414 60.9766C172.898 60.7969 172.453 60.5195 172.078 60.1445C171.711 59.7617 171.422 59.2734 171.211 58.6797C171.008 58.0781 170.906 57.3555 170.906 56.5117V48.3203H174.281V56.5352C174.281 56.9102 174.324 57.2266 174.41 57.4844C174.504 57.7422 174.633 57.9531 174.797 58.1172C174.961 58.2812 175.152 58.3984 175.371 58.4688C175.598 58.5391 175.848 58.5742 176.121 58.5742C176.816 58.5742 177.363 58.4336 177.762 58.1523C178.168 57.8711 178.453 57.4883 178.617 57.0039C178.789 56.5117 178.875 55.9648 178.875 55.3633ZM191.297 58.1406V52.4922C191.297 52.0859 191.23 51.7383 191.098 51.4492C190.965 51.1523 190.758 50.9219 190.477 50.7578C190.203 50.5938 189.848 50.5117 189.41 50.5117C189.035 50.5117 188.711 50.5781 188.438 50.7109C188.164 50.8359 187.953 51.0195 187.805 51.2617C187.656 51.4961 187.582 51.7734 187.582 52.0938H184.207C184.207 51.5547 184.332 51.043 184.582 50.5586C184.832 50.0742 185.195 49.6484 185.672 49.2812C186.148 48.9062 186.715 48.6133 187.371 48.4023C188.035 48.1914 188.777 48.0859 189.598 48.0859C190.582 48.0859 191.457 48.25 192.223 48.5781C192.988 48.9062 193.59 49.3984 194.027 50.0547C194.473 50.7109 194.695 51.5312 194.695 52.5156V57.9414C194.695 58.6367 194.738 59.207 194.824 59.6523C194.91 60.0898 195.035 60.4727 195.199 60.8008V61H191.789C191.625 60.6562 191.5 60.2266 191.414 59.7109C191.336 59.1875 191.297 58.6641 191.297 58.1406ZM191.742 53.2773L191.766 55.1875H189.879C189.434 55.1875 189.047 55.2383 188.719 55.3398C188.391 55.4414 188.121 55.5859 187.91 55.7734C187.699 55.9531 187.543 56.1641 187.441 56.4062C187.348 56.6484 187.301 56.9141 187.301 57.2031C187.301 57.4922 187.367 57.7539 187.5 57.9883C187.633 58.2148 187.824 58.3945 188.074 58.5273C188.324 58.6523 188.617 58.7148 188.953 58.7148C189.461 58.7148 189.902 58.6133 190.277 58.4102C190.652 58.207 190.941 57.957 191.145 57.6602C191.355 57.3633 191.465 57.082 191.473 56.8164L192.363 58.2461C192.238 58.5664 192.066 58.8984 191.848 59.2422C191.637 59.5859 191.367 59.9102 191.039 60.2148C190.711 60.5117 190.316 60.7578 189.855 60.9531C189.395 61.1406 188.848 61.2344 188.215 61.2344C187.41 61.2344 186.68 61.0742 186.023 60.7539C185.375 60.4258 184.859 59.9766 184.477 59.4062C184.102 58.8281 183.914 58.1719 183.914 57.4375C183.914 56.7734 184.039 56.1836 184.289 55.668C184.539 55.1523 184.906 54.7188 185.391 54.3672C185.883 54.0078 186.496 53.7383 187.23 53.5586C187.965 53.3711 188.816 53.2773 189.785 53.2773H191.742ZM200.672 51.0859V61H197.297V48.3203H200.473L200.672 51.0859ZM204.492 48.2383L204.434 51.3672C204.27 51.3438 204.07 51.3242 203.836 51.3086C203.609 51.2852 203.402 51.2734 203.215 51.2734C202.738 51.2734 202.324 51.3359 201.973 51.4609C201.629 51.5781 201.34 51.7539 201.105 51.9883C200.879 52.2227 200.707 52.5078 200.59 52.8438C200.48 53.1797 200.418 53.5625 200.402 53.9922L199.723 53.7812C199.723 52.9609 199.805 52.207 199.969 51.5195C200.133 50.8242 200.371 50.2188 200.684 49.7031C201.004 49.1875 201.395 48.7891 201.855 48.5078C202.316 48.2266 202.844 48.0859 203.438 48.0859C203.625 48.0859 203.816 48.1016 204.012 48.1328C204.207 48.1562 204.367 48.1914 204.492 48.2383ZM213.34 58.2344V43H216.738V61H213.68L213.34 58.2344ZM205.324 54.8125V54.5664C205.324 53.5977 205.434 52.7188 205.652 51.9297C205.871 51.1328 206.191 50.4492 206.613 49.8789C207.035 49.3086 207.555 48.8672 208.172 48.5547C208.789 48.2422 209.492 48.0859 210.281 48.0859C211.023 48.0859 211.672 48.2422 212.227 48.5547C212.789 48.8672 213.266 49.3125 213.656 49.8906C214.055 50.4609 214.375 51.1367 214.617 51.918C214.859 52.6914 215.035 53.5391 215.145 54.4609V55C215.035 55.8828 214.859 56.7031 214.617 57.4609C214.375 58.2188 214.055 58.8828 213.656 59.4531C213.266 60.0156 212.789 60.4531 212.227 60.7656C211.664 61.0781 211.008 61.2344 210.258 61.2344C209.469 61.2344 208.766 61.0742 208.148 60.7539C207.539 60.4336 207.023 59.9844 206.602 59.4062C206.188 58.8281 205.871 58.1484 205.652 57.3672C205.434 56.5859 205.324 55.7344 205.324 54.8125ZM208.699 54.5664V54.8125C208.699 55.3359 208.738 55.8242 208.816 56.2773C208.902 56.7305 209.039 57.1328 209.227 57.4844C209.422 57.8281 209.672 58.0977 209.977 58.293C210.289 58.4805 210.668 58.5742 211.113 58.5742C211.691 58.5742 212.168 58.4453 212.543 58.1875C212.918 57.9219 213.203 57.5586 213.398 57.0977C213.602 56.6367 213.719 56.1055 213.75 55.5039V53.9688C213.727 53.4766 213.656 53.0352 213.539 52.6445C213.43 52.2461 213.266 51.9062 213.047 51.625C212.836 51.3438 212.57 51.125 212.25 50.9688C211.938 50.8125 211.566 50.7344 211.137 50.7344C210.699 50.7344 210.324 50.8359 210.012 51.0391C209.699 51.2344 209.445 51.5039 209.25 51.8477C209.062 52.1914 208.922 52.5977 208.828 53.0664C208.742 53.5273 208.699 54.0273 208.699 54.5664Z" fill="#888888"/>
<path d="M106.688 119H99.1172L99.1641 112.672H106.688C108.25 112.672 109.57 112.297 110.648 111.547C111.742 110.797 112.57 109.68 113.133 108.195C113.711 106.695 114 104.852 114 102.664V101.188C114 99.5469 113.836 98.1094 113.508 96.875C113.195 95.625 112.727 94.5859 112.102 93.7578C111.477 92.9141 110.695 92.2812 109.758 91.8594C108.836 91.4375 107.773 91.2266 106.57 91.2266H98.9766V84.875H106.57C108.883 84.875 111 85.2734 112.922 86.0703C114.859 86.8516 116.531 87.9766 117.938 89.4453C119.359 90.8984 120.453 92.625 121.219 94.625C122 96.6094 122.391 98.8125 122.391 101.234V102.664C122.391 105.07 122 107.273 121.219 109.273C120.453 111.273 119.367 113 117.961 114.453C116.555 115.906 114.891 117.031 112.969 117.828C111.062 118.609 108.969 119 106.688 119ZM103.828 84.875V119H95.6016V84.875H103.828ZM138.586 119.469C136.523 119.469 134.68 119.148 133.055 118.508C131.43 117.852 130.055 116.953 128.93 115.812C127.82 114.672 126.969 113.359 126.375 111.875C125.797 110.391 125.508 108.82 125.508 107.164V106.273C125.508 104.414 125.766 102.695 126.281 101.117C126.797 99.5234 127.562 98.1328 128.578 96.9453C129.594 95.7578 130.867 94.8359 132.398 94.1797C133.93 93.5078 135.711 93.1719 137.742 93.1719C139.539 93.1719 141.148 93.4609 142.57 94.0391C143.992 94.6172 145.195 95.4453 146.18 96.5234C147.18 97.6016 147.938 98.9062 148.453 100.438C148.984 101.969 149.25 103.688 149.25 105.594V108.805H128.531V103.859H141.539V103.25C141.555 102.406 141.406 101.688 141.094 101.094C140.797 100.5 140.359 100.047 139.781 99.7344C139.203 99.4219 138.5 99.2656 137.672 99.2656C136.812 99.2656 136.102 99.4531 135.539 99.8281C134.992 100.203 134.562 100.719 134.25 101.375C133.953 102.016 133.742 102.758 133.617 103.602C133.492 104.445 133.43 105.336 133.43 106.273V107.164C133.43 108.102 133.555 108.953 133.805 109.719C134.07 110.484 134.445 111.141 134.93 111.688C135.43 112.219 136.023 112.633 136.711 112.93C137.414 113.227 138.211 113.375 139.102 113.375C140.18 113.375 141.242 113.172 142.289 112.766C143.336 112.359 144.234 111.688 144.984 110.75L148.57 115.016C148.055 115.75 147.32 116.461 146.367 117.148C145.43 117.836 144.305 118.398 142.992 118.836C141.68 119.258 140.211 119.469 138.586 119.469ZM160.43 99.0078V119H152.531V93.6406H159.938L160.43 99.0078ZM159.469 105.453L157.664 105.5C157.664 103.719 157.875 102.078 158.297 100.578C158.719 99.0781 159.344 97.7734 160.172 96.6641C161 95.5547 162.016 94.6953 163.219 94.0859C164.438 93.4766 165.844 93.1719 167.438 93.1719C168.547 93.1719 169.555 93.3438 170.461 93.6875C171.367 94.0156 172.148 94.5391 172.805 95.2578C173.461 95.9609 173.961 96.8828 174.305 98.0234C174.664 99.1484 174.844 100.5 174.844 102.078V119H166.945V103.086C166.945 102.008 166.82 101.195 166.57 100.648C166.336 100.102 165.992 99.7344 165.539 99.5469C165.086 99.3594 164.531 99.2656 163.875 99.2656C163.188 99.2656 162.57 99.4219 162.023 99.7344C161.477 100.047 161.008 100.484 160.617 101.047C160.242 101.594 159.953 102.242 159.75 102.992C159.562 103.742 159.469 104.562 159.469 105.453ZM173.953 105.453L171.75 105.5C171.75 103.719 171.945 102.078 172.336 100.578C172.742 99.0781 173.344 97.7734 174.141 96.6641C174.953 95.5547 175.961 94.6953 177.164 94.0859C178.367 93.4766 179.766 93.1719 181.359 93.1719C182.516 93.1719 183.578 93.3438 184.547 93.6875C185.516 94.0312 186.352 94.5859 187.055 95.3516C187.758 96.1172 188.305 97.1328 188.695 98.3984C189.086 99.6484 189.281 101.195 189.281 103.039V119H181.359V103.039C181.359 101.992 181.234 101.203 180.984 100.672C180.75 100.125 180.406 99.7578 179.953 99.5703C179.5 99.3672 178.961 99.2656 178.336 99.2656C177.586 99.2656 176.938 99.4219 176.391 99.7344C175.844 100.047 175.383 100.484 175.008 101.047C174.648 101.594 174.383 102.242 174.211 102.992C174.039 103.742 173.953 104.562 173.953 105.453ZM192.82 106.578V106.086C192.82 104.227 193.086 102.516 193.617 100.953C194.148 99.375 194.93 98.0078 195.961 96.8516C196.992 95.6953 198.266 94.7969 199.781 94.1562C201.297 93.5 203.047 93.1719 205.031 93.1719C207.031 93.1719 208.789 93.5 210.305 94.1562C211.836 94.7969 213.117 95.6953 214.148 96.8516C215.18 98.0078 215.961 99.375 216.492 100.953C217.023 102.516 217.289 104.227 217.289 106.086V106.578C217.289 108.422 217.023 110.133 216.492 111.711C215.961 113.273 215.18 114.641 214.148 115.812C213.117 116.969 211.844 117.867 210.328 118.508C208.812 119.148 207.062 119.469 205.078 119.469C203.094 119.469 201.336 119.148 199.805 118.508C198.273 117.867 196.992 116.969 195.961 115.812C194.93 114.641 194.148 113.273 193.617 111.711C193.086 110.133 192.82 108.422 192.82 106.578ZM200.719 106.086V106.578C200.719 107.531 200.789 108.422 200.93 109.25C201.07 110.078 201.305 110.805 201.633 111.43C201.961 112.039 202.406 112.516 202.969 112.859C203.531 113.203 204.234 113.375 205.078 113.375C205.906 113.375 206.594 113.203 207.141 112.859C207.703 112.516 208.148 112.039 208.477 111.43C208.805 110.805 209.039 110.078 209.18 109.25C209.32 108.422 209.391 107.531 209.391 106.578V106.086C209.391 105.164 209.32 104.297 209.18 103.484C209.039 102.656 208.805 101.93 208.477 101.305C208.148 100.664 207.703 100.164 207.141 99.8047C206.578 99.4453 205.875 99.2656 205.031 99.2656C204.203 99.2656 203.508 99.4453 202.945 99.8047C202.398 100.164 201.961 100.664 201.633 101.305C201.305 101.93 201.07 102.656 200.93 103.484C200.789 104.297 200.719 105.164 200.719 106.086Z" fill="black"/>
<path d="M1134 0H1348C1356.28 0 1363 6.71573 1363 15V148C1363 156.284 1356.28 163 1348 163H1134V0Z" fill="#80C6DA"/>
<path d="M1280.07 47.5H1216.93L1214.5 49.9286V113.071L1216.93 115.5H1280.07L1282.5 113.071V49.9286L1280.07 47.5ZM1277.64 110.643H1233.93V100.929H1245.1C1246.56 103.843 1249.96 105.786 1253.36 105.786C1258.7 105.786 1263.07 101.414 1263.07 96.0714C1263.07 90.7286 1258.7 86.3571 1253.36 86.3571C1248.01 86.3571 1243.64 90.7286 1243.64 96.0714H1229.07V110.643H1219.36V52.3571H1229.07V63.5286C1226.16 64.9857 1224.21 68.3857 1224.21 71.7857C1224.21 77.1286 1228.59 81.5 1233.93 81.5C1239.27 81.5 1243.64 77.1286 1243.64 71.7857H1253.36C1253.36 77.1286 1257.73 81.5 1263.07 81.5C1268.41 81.5 1272.79 77.1286 1272.79 71.7857C1272.79 66.4429 1268.41 62.0714 1263.07 62.0714C1259.67 62.0714 1256.27 64.0143 1254.81 66.9286H1242.19C1240.73 64.0143 1237.33 62.0714 1233.93 62.0714V52.3571H1277.64V110.643ZM1248.5 96.0714C1248.5 93.1571 1250.44 91.2143 1253.36 91.2143C1256.27 91.2143 1258.21 93.1571 1258.21 96.0714C1258.21 98.9857 1256.27 100.929 1253.36 100.929C1250.44 100.929 1248.5 98.9857 1248.5 96.0714ZM1233.93 66.9286C1236.84 66.9286 1238.79 68.8714 1238.79 71.7857C1238.79 74.7 1236.84 76.6429 1233.93 76.6429C1231.01 76.6429 1229.07 74.7 1229.07 71.7857C1229.07 68.8714 1231.01 66.9286 1233.93 66.9286ZM1263.07 66.9286C1265.99 66.9286 1267.93 68.8714 1267.93 71.7857C1267.93 74.7 1265.99 76.6429 1263.07 76.6429C1260.16 76.6429 1258.21 74.7 1258.21 71.7857C1258.21 68.8714 1260.16 66.9286 1263.07 66.9286Z" fill="white"/>
</svg>
