<svg width="1363" height="163" viewBox="0 0 1363 163" fill="none" xmlns="http://www.w3.org/2000/svg">
<path d="M0 15C0 6.71573 6.71573 0 15 0H37V163H15C6.71573 163 0 156.284 0 148V15Z" fill="#424242"/>
<rect width="1097" height="163" transform="translate(37)" fill="#F0F0F0"/>
<path d="M96.1289 43.9375H99.1055L103.488 56.4648L107.871 43.9375H110.848L104.684 61H102.293L96.1289 43.9375ZM94.5234 43.9375H97.4883L98.0273 56.1484V61H94.5234V43.9375ZM109.488 43.9375H112.465V61H108.949V56.1484L109.488 43.9375ZM118.898 48.3203V61H115.512V48.3203H118.898ZM115.301 45.0156C115.301 44.5234 115.473 44.1172 115.816 43.7969C116.16 43.4766 116.621 43.3164 117.199 43.3164C117.77 43.3164 118.227 43.4766 118.57 43.7969C118.922 44.1172 119.098 44.5234 119.098 45.0156C119.098 45.5078 118.922 45.9141 118.57 46.2344C118.227 46.5547 117.77 46.7148 117.199 46.7148C116.621 46.7148 116.16 46.5547 115.816 46.2344C115.473 45.9141 115.301 45.5078 115.301 45.0156ZM124.992 51.0273V61H121.617V48.3203H124.781L124.992 51.0273ZM124.5 54.2148H123.586C123.586 53.2773 123.707 52.4336 123.949 51.6836C124.191 50.9258 124.531 50.2812 124.969 49.75C125.406 49.2109 125.926 48.8008 126.527 48.5195C127.137 48.2305 127.816 48.0859 128.566 48.0859C129.16 48.0859 129.703 48.1719 130.195 48.3438C130.688 48.5156 131.109 48.7891 131.461 49.1641C131.82 49.5391 132.094 50.0352 132.281 50.6523C132.477 51.2695 132.574 52.0234 132.574 52.9141V61H129.176V52.9023C129.176 52.3398 129.098 51.9023 128.941 51.5898C128.785 51.2773 128.555 51.0586 128.25 50.9336C127.953 50.8008 127.586 50.7344 127.148 50.7344C126.695 50.7344 126.301 50.8242 125.965 51.0039C125.637 51.1836 125.363 51.4336 125.145 51.7539C124.934 52.0664 124.773 52.4336 124.664 52.8555C124.555 53.2773 124.5 53.7305 124.5 54.2148ZM142.629 58.2344V43H146.027V61H142.969L142.629 58.2344ZM134.613 54.8125V54.5664C134.613 53.5977 134.723 52.7188 134.941 51.9297C135.16 51.1328 135.48 50.4492 135.902 49.8789C136.324 49.3086 136.844 48.8672 137.461 48.5547C138.078 48.2422 138.781 48.0859 139.57 48.0859C140.312 48.0859 140.961 48.2422 141.516 48.5547C142.078 48.8672 142.555 49.3125 142.945 49.8906C143.344 50.4609 143.664 51.1367 143.906 51.918C144.148 52.6914 144.324 53.5391 144.434 54.4609V55C144.324 55.8828 144.148 56.7031 143.906 57.4609C143.664 58.2188 143.344 58.8828 142.945 59.4531C142.555 60.0156 142.078 60.4531 141.516 60.7656C140.953 61.0781 140.297 61.2344 139.547 61.2344C138.758 61.2344 138.055 61.0742 137.438 60.7539C136.828 60.4336 136.312 59.9844 135.891 59.4062C135.477 58.8281 135.16 58.1484 134.941 57.3672C134.723 56.5859 134.613 55.7344 134.613 54.8125ZM137.988 54.5664V54.8125C137.988 55.3359 138.027 55.8242 138.105 56.2773C138.191 56.7305 138.328 57.1328 138.516 57.4844C138.711 57.8281 138.961 58.0977 139.266 58.293C139.578 58.4805 139.957 58.5742 140.402 58.5742C140.98 58.5742 141.457 58.4453 141.832 58.1875C142.207 57.9219 142.492 57.5586 142.688 57.0977C142.891 56.6367 143.008 56.1055 143.039 55.5039V53.9688C143.016 53.4766 142.945 53.0352 142.828 52.6445C142.719 52.2461 142.555 51.9062 142.336 51.625C142.125 51.3438 141.859 51.125 141.539 50.9688C141.227 50.8125 140.855 50.7344 140.426 50.7344C139.988 50.7344 139.613 50.8359 139.301 51.0391C138.988 51.2344 138.734 51.5039 138.539 51.8477C138.352 52.1914 138.211 52.5977 138.117 53.0664C138.031 53.5273 137.988 54.0273 137.988 54.5664ZM168.375 52.082V58.8438C168.109 59.1641 167.699 59.5117 167.145 59.8867C166.59 60.2539 165.875 60.5703 165 60.8359C164.125 61.1016 163.066 61.2344 161.824 61.2344C160.723 61.2344 159.719 61.0547 158.812 60.6953C157.906 60.3281 157.125 59.793 156.469 59.0898C155.82 58.3867 155.32 57.5273 154.969 56.5117C154.617 55.4883 154.441 54.3203 154.441 53.0078V51.9414C154.441 50.6289 154.609 49.4609 154.945 48.4375C155.289 47.4141 155.777 46.5508 156.41 45.8477C157.043 45.1445 157.797 44.6094 158.672 44.2422C159.547 43.875 160.52 43.6914 161.59 43.6914C163.074 43.6914 164.293 43.9336 165.246 44.418C166.199 44.8945 166.926 45.5586 167.426 46.4102C167.934 47.2539 168.246 48.2227 168.363 49.3164H164.953C164.867 48.7383 164.703 48.2344 164.461 47.8047C164.219 47.375 163.871 47.0391 163.418 46.7969C162.973 46.5547 162.395 46.4336 161.684 46.4336C161.098 46.4336 160.574 46.5547 160.113 46.7969C159.66 47.0312 159.277 47.3789 158.965 47.8398C158.652 48.3008 158.414 48.8711 158.25 49.5508C158.086 50.2305 158.004 51.0195 158.004 51.918V53.0078C158.004 53.8984 158.09 54.6875 158.262 55.375C158.434 56.0547 158.688 56.6289 159.023 57.0977C159.367 57.5586 159.789 57.9062 160.289 58.1406C160.789 58.375 161.371 58.4922 162.035 58.4922C162.59 58.4922 163.051 58.4453 163.418 58.3516C163.793 58.2578 164.094 58.1445 164.32 58.0117C164.555 57.8711 164.734 57.7383 164.859 57.6133V54.5898H161.648V52.082H168.375ZM178.5 57.9648V48.3203H181.875V61H178.699L178.5 57.9648ZM178.875 55.3633L179.871 55.3398C179.871 56.1836 179.773 56.9688 179.578 57.6953C179.383 58.4141 179.09 59.0391 178.699 59.5703C178.309 60.0938 177.816 60.5039 177.223 60.8008C176.629 61.0898 175.93 61.2344 175.125 61.2344C174.508 61.2344 173.938 61.1484 173.414 60.9766C172.898 60.7969 172.453 60.5195 172.078 60.1445C171.711 59.7617 171.422 59.2734 171.211 58.6797C171.008 58.0781 170.906 57.3555 170.906 56.5117V48.3203H174.281V56.5352C174.281 56.9102 174.324 57.2266 174.41 57.4844C174.504 57.7422 174.633 57.9531 174.797 58.1172C174.961 58.2812 175.152 58.3984 175.371 58.4688C175.598 58.5391 175.848 58.5742 176.121 58.5742C176.816 58.5742 177.363 58.4336 177.762 58.1523C178.168 57.8711 178.453 57.4883 178.617 57.0039C178.789 56.5117 178.875 55.9648 178.875 55.3633ZM191.297 58.1406V52.4922C191.297 52.0859 191.23 51.7383 191.098 51.4492C190.965 51.1523 190.758 50.9219 190.477 50.7578C190.203 50.5938 189.848 50.5117 189.41 50.5117C189.035 50.5117 188.711 50.5781 188.438 50.7109C188.164 50.8359 187.953 51.0195 187.805 51.2617C187.656 51.4961 187.582 51.7734 187.582 52.0938H184.207C184.207 51.5547 184.332 51.043 184.582 50.5586C184.832 50.0742 185.195 49.6484 185.672 49.2812C186.148 48.9062 186.715 48.6133 187.371 48.4023C188.035 48.1914 188.777 48.0859 189.598 48.0859C190.582 48.0859 191.457 48.25 192.223 48.5781C192.988 48.9062 193.59 49.3984 194.027 50.0547C194.473 50.7109 194.695 51.5312 194.695 52.5156V57.9414C194.695 58.6367 194.738 59.207 194.824 59.6523C194.91 60.0898 195.035 60.4727 195.199 60.8008V61H191.789C191.625 60.6562 191.5 60.2266 191.414 59.7109C191.336 59.1875 191.297 58.6641 191.297 58.1406ZM191.742 53.2773L191.766 55.1875H189.879C189.434 55.1875 189.047 55.2383 188.719 55.3398C188.391 55.4414 188.121 55.5859 187.91 55.7734C187.699 55.9531 187.543 56.1641 187.441 56.4062C187.348 56.6484 187.301 56.9141 187.301 57.2031C187.301 57.4922 187.367 57.7539 187.5 57.9883C187.633 58.2148 187.824 58.3945 188.074 58.5273C188.324 58.6523 188.617 58.7148 188.953 58.7148C189.461 58.7148 189.902 58.6133 190.277 58.4102C190.652 58.207 190.941 57.957 191.145 57.6602C191.355 57.3633 191.465 57.082 191.473 56.8164L192.363 58.2461C192.238 58.5664 192.066 58.8984 191.848 59.2422C191.637 59.5859 191.367 59.9102 191.039 60.2148C190.711 60.5117 190.316 60.7578 189.855 60.9531C189.395 61.1406 188.848 61.2344 188.215 61.2344C187.41 61.2344 186.68 61.0742 186.023 60.7539C185.375 60.4258 184.859 59.9766 184.477 59.4062C184.102 58.8281 183.914 58.1719 183.914 57.4375C183.914 56.7734 184.039 56.1836 184.289 55.668C184.539 55.1523 184.906 54.7188 185.391 54.3672C185.883 54.0078 186.496 53.7383 187.23 53.5586C187.965 53.3711 188.816 53.2773 189.785 53.2773H191.742ZM200.672 51.0859V61H197.297V48.3203H200.473L200.672 51.0859ZM204.492 48.2383L204.434 51.3672C204.27 51.3438 204.07 51.3242 203.836 51.3086C203.609 51.2852 203.402 51.2734 203.215 51.2734C202.738 51.2734 202.324 51.3359 201.973 51.4609C201.629 51.5781 201.34 51.7539 201.105 51.9883C200.879 52.2227 200.707 52.5078 200.59 52.8438C200.48 53.1797 200.418 53.5625 200.402 53.9922L199.723 53.7812C199.723 52.9609 199.805 52.207 199.969 51.5195C200.133 50.8242 200.371 50.2188 200.684 49.7031C201.004 49.1875 201.395 48.7891 201.855 48.5078C202.316 48.2266 202.844 48.0859 203.438 48.0859C203.625 48.0859 203.816 48.1016 204.012 48.1328C204.207 48.1562 204.367 48.1914 204.492 48.2383ZM213.34 58.2344V43H216.738V61H213.68L213.34 58.2344ZM205.324 54.8125V54.5664C205.324 53.5977 205.434 52.7188 205.652 51.9297C205.871 51.1328 206.191 50.4492 206.613 49.8789C207.035 49.3086 207.555 48.8672 208.172 48.5547C208.789 48.2422 209.492 48.0859 210.281 48.0859C211.023 48.0859 211.672 48.2422 212.227 48.5547C212.789 48.8672 213.266 49.3125 213.656 49.8906C214.055 50.4609 214.375 51.1367 214.617 51.918C214.859 52.6914 215.035 53.5391 215.145 54.4609V55C215.035 55.8828 214.859 56.7031 214.617 57.4609C214.375 58.2188 214.055 58.8828 213.656 59.4531C213.266 60.0156 212.789 60.4531 212.227 60.7656C211.664 61.0781 211.008 61.2344 210.258 61.2344C209.469 61.2344 208.766 61.0742 208.148 60.7539C207.539 60.4336 207.023 59.9844 206.602 59.4062C206.188 58.8281 205.871 58.1484 205.652 57.3672C205.434 56.5859 205.324 55.7344 205.324 54.8125ZM208.699 54.5664V54.8125C208.699 55.3359 208.738 55.8242 208.816 56.2773C208.902 56.7305 209.039 57.1328 209.227 57.4844C209.422 57.8281 209.672 58.0977 209.977 58.293C210.289 58.4805 210.668 58.5742 211.113 58.5742C211.691 58.5742 212.168 58.4453 212.543 58.1875C212.918 57.9219 213.203 57.5586 213.398 57.0977C213.602 56.6367 213.719 56.1055 213.75 55.5039V53.9688C213.727 53.4766 213.656 53.0352 213.539 52.6445C213.43 52.2461 213.266 51.9062 213.047 51.625C212.836 51.3438 212.57 51.125 212.25 50.9688C211.938 50.8125 211.566 50.7344 211.137 50.7344C210.699 50.7344 210.324 50.8359 210.012 51.0391C209.699 51.2344 209.445 51.5039 209.25 51.8477C209.062 52.1914 208.922 52.5977 208.828 53.0664C208.742 53.5273 208.699 54.0273 208.699 54.5664Z" fill="#888888"/>
<path d="M106.688 119H99.1172L99.1641 112.672H106.688C108.25 112.672 109.57 112.297 110.648 111.547C111.742 110.797 112.57 109.68 113.133 108.195C113.711 106.695 114 104.852 114 102.664V101.188C114 99.5469 113.836 98.1094 113.508 96.875C113.195 95.625 112.727 94.5859 112.102 93.7578C111.477 92.9141 110.695 92.2812 109.758 91.8594C108.836 91.4375 107.773 91.2266 106.57 91.2266H98.9766V84.875H106.57C108.883 84.875 111 85.2734 112.922 86.0703C114.859 86.8516 116.531 87.9766 117.938 89.4453C119.359 90.8984 120.453 92.625 121.219 94.625C122 96.6094 122.391 98.8125 122.391 101.234V102.664C122.391 105.07 122 107.273 121.219 109.273C120.453 111.273 119.367 113 117.961 114.453C116.555 115.906 114.891 117.031 112.969 117.828C111.062 118.609 108.969 119 106.688 119ZM103.828 84.875V119H95.6016V84.875H103.828ZM138.586 119.469C136.523 119.469 134.68 119.148 133.055 118.508C131.43 117.852 130.055 116.953 128.93 115.812C127.82 114.672 126.969 113.359 126.375 111.875C125.797 110.391 125.508 108.82 125.508 107.164V106.273C125.508 104.414 125.766 102.695 126.281 101.117C126.797 99.5234 127.562 98.1328 128.578 96.9453C129.594 95.7578 130.867 94.8359 132.398 94.1797C133.93 93.5078 135.711 93.1719 137.742 93.1719C139.539 93.1719 141.148 93.4609 142.57 94.0391C143.992 94.6172 145.195 95.4453 146.18 96.5234C147.18 97.6016 147.938 98.9062 148.453 100.438C148.984 101.969 149.25 103.688 149.25 105.594V108.805H128.531V103.859H141.539V103.25C141.555 102.406 141.406 101.688 141.094 101.094C140.797 100.5 140.359 100.047 139.781 99.7344C139.203 99.4219 138.5 99.2656 137.672 99.2656C136.812 99.2656 136.102 99.4531 135.539 99.8281C134.992 100.203 134.562 100.719 134.25 101.375C133.953 102.016 133.742 102.758 133.617 103.602C133.492 104.445 133.43 105.336 133.43 106.273V107.164C133.43 108.102 133.555 108.953 133.805 109.719C134.07 110.484 134.445 111.141 134.93 111.688C135.43 112.219 136.023 112.633 136.711 112.93C137.414 113.227 138.211 113.375 139.102 113.375C140.18 113.375 141.242 113.172 142.289 112.766C143.336 112.359 144.234 111.688 144.984 110.75L148.57 115.016C148.055 115.75 147.32 116.461 146.367 117.148C145.43 117.836 144.305 118.398 142.992 118.836C141.68 119.258 140.211 119.469 138.586 119.469ZM160.43 98.5156V128.75H152.531V93.6406H159.891L160.43 98.5156ZM175.992 106.016V106.508C175.992 108.352 175.781 110.062 175.359 111.641C174.938 113.219 174.312 114.594 173.484 115.766C172.656 116.938 171.625 117.852 170.391 118.508C169.172 119.148 167.758 119.469 166.148 119.469C164.633 119.469 163.328 119.133 162.234 118.461C161.141 117.789 160.227 116.859 159.492 115.672C158.758 114.484 158.164 113.125 157.711 111.594C157.258 110.062 156.898 108.445 156.633 106.742V106.109C156.898 104.281 157.258 102.586 157.711 101.023C158.164 99.4453 158.758 98.0703 159.492 96.8984C160.227 95.7266 161.133 94.8125 162.211 94.1562C163.305 93.5 164.609 93.1719 166.125 93.1719C167.734 93.1719 169.148 93.4766 170.367 94.0859C171.602 94.6953 172.633 95.5703 173.461 96.7109C174.305 97.8359 174.938 99.1875 175.359 100.766C175.781 102.344 175.992 104.094 175.992 106.016ZM168.094 106.508V106.016C168.094 105.031 168.023 104.133 167.883 103.32C167.742 102.492 167.516 101.773 167.203 101.164C166.906 100.555 166.508 100.086 166.008 99.7578C165.508 99.4297 164.891 99.2656 164.156 99.2656C163.312 99.2656 162.602 99.3984 162.023 99.6641C161.461 99.9141 161.008 100.305 160.664 100.836C160.336 101.352 160.102 102 159.961 102.781C159.836 103.547 159.781 104.445 159.797 105.477V107.398C159.766 108.586 159.883 109.633 160.148 110.539C160.414 111.43 160.875 112.125 161.531 112.625C162.188 113.125 163.078 113.375 164.203 113.375C164.953 113.375 165.578 113.203 166.078 112.859C166.578 112.5 166.977 112.008 167.273 111.383C167.57 110.742 167.781 110.008 167.906 109.18C168.031 108.352 168.094 107.461 168.094 106.508ZM187.852 83V119H179.93V83H187.852ZM191.742 106.578V106.086C191.742 104.227 192.008 102.516 192.539 100.953C193.07 99.375 193.852 98.0078 194.883 96.8516C195.914 95.6953 197.188 94.7969 198.703 94.1562C200.219 93.5 201.969 93.1719 203.953 93.1719C205.953 93.1719 207.711 93.5 209.227 94.1562C210.758 94.7969 212.039 95.6953 213.07 96.8516C214.102 98.0078 214.883 99.375 215.414 100.953C215.945 102.516 216.211 104.227 216.211 106.086V106.578C216.211 108.422 215.945 110.133 215.414 111.711C214.883 113.273 214.102 114.641 213.07 115.812C212.039 116.969 210.766 117.867 209.25 118.508C207.734 119.148 205.984 119.469 204 119.469C202.016 119.469 200.258 119.148 198.727 118.508C197.195 117.867 195.914 116.969 194.883 115.812C193.852 114.641 193.07 113.273 192.539 111.711C192.008 110.133 191.742 108.422 191.742 106.578ZM199.641 106.086V106.578C199.641 107.531 199.711 108.422 199.852 109.25C199.992 110.078 200.227 110.805 200.555 111.43C200.883 112.039 201.328 112.516 201.891 112.859C202.453 113.203 203.156 113.375 204 113.375C204.828 113.375 205.516 113.203 206.062 112.859C206.625 112.516 207.07 112.039 207.398 111.43C207.727 110.805 207.961 110.078 208.102 109.25C208.242 108.422 208.312 107.531 208.312 106.578V106.086C208.312 105.164 208.242 104.297 208.102 103.484C207.961 102.656 207.727 101.93 207.398 101.305C207.07 100.664 206.625 100.164 206.062 99.8047C205.5 99.4453 204.797 99.2656 203.953 99.2656C203.125 99.2656 202.43 99.4453 201.867 99.8047C201.32 100.164 200.883 100.664 200.555 101.305C200.227 101.93 199.992 102.656 199.852 103.484C199.711 104.297 199.641 105.164 199.641 106.086ZM227.133 116.023L233.695 93.6406H242.18L231.984 122.773C231.766 123.414 231.477 124.102 231.117 124.836C230.758 125.586 230.266 126.297 229.641 126.969C229.016 127.641 228.211 128.188 227.227 128.609C226.258 129.031 225.055 129.242 223.617 129.242C222.852 129.242 222.289 129.203 221.93 129.125C221.586 129.062 221.055 128.945 220.336 128.773V123.125C220.539 123.125 220.711 123.125 220.852 123.125C221.008 123.125 221.18 123.125 221.367 123.125C222.211 123.125 222.883 123.039 223.383 122.867C223.898 122.695 224.289 122.445 224.555 122.117C224.836 121.789 225.055 121.391 225.211 120.922L227.133 116.023ZM225.469 93.6406L230.461 111.383L231.328 119.75H226.031L217.008 93.6406H225.469ZM252.211 99.0078V119H244.312V93.6406H251.719L252.211 99.0078ZM251.25 105.453L249.445 105.5C249.445 103.719 249.656 102.078 250.078 100.578C250.5 99.0781 251.125 97.7734 251.953 96.6641C252.781 95.5547 253.797 94.6953 255 94.0859C256.219 93.4766 257.625 93.1719 259.219 93.1719C260.328 93.1719 261.336 93.3438 262.242 93.6875C263.148 94.0156 263.93 94.5391 264.586 95.2578C265.242 95.9609 265.742 96.8828 266.086 98.0234C266.445 99.1484 266.625 100.5 266.625 102.078V119H258.727V103.086C258.727 102.008 258.602 101.195 258.352 100.648C258.117 100.102 257.773 99.7344 257.32 99.5469C256.867 99.3594 256.312 99.2656 255.656 99.2656C254.969 99.2656 254.352 99.4219 253.805 99.7344C253.258 100.047 252.789 100.484 252.398 101.047C252.023 101.594 251.734 102.242 251.531 102.992C251.344 103.742 251.25 104.562 251.25 105.453ZM265.734 105.453L263.531 105.5C263.531 103.719 263.727 102.078 264.117 100.578C264.523 99.0781 265.125 97.7734 265.922 96.6641C266.734 95.5547 267.742 94.6953 268.945 94.0859C270.148 93.4766 271.547 93.1719 273.141 93.1719C274.297 93.1719 275.359 93.3438 276.328 93.6875C277.297 94.0312 278.133 94.5859 278.836 95.3516C279.539 96.1172 280.086 97.1328 280.477 98.3984C280.867 99.6484 281.062 101.195 281.062 103.039V119H273.141V103.039C273.141 101.992 273.016 101.203 272.766 100.672C272.531 100.125 272.188 99.7578 271.734 99.5703C271.281 99.3672 270.742 99.2656 270.117 99.2656C269.367 99.2656 268.719 99.4219 268.172 99.7344C267.625 100.047 267.164 100.484 266.789 101.047C266.43 101.594 266.164 102.242 265.992 102.992C265.82 103.742 265.734 104.562 265.734 105.453ZM297.867 119.469C295.805 119.469 293.961 119.148 292.336 118.508C290.711 117.852 289.336 116.953 288.211 115.812C287.102 114.672 286.25 113.359 285.656 111.875C285.078 110.391 284.789 108.82 284.789 107.164V106.273C284.789 104.414 285.047 102.695 285.562 101.117C286.078 99.5234 286.844 98.1328 287.859 96.9453C288.875 95.7578 290.148 94.8359 291.68 94.1797C293.211 93.5078 294.992 93.1719 297.023 93.1719C298.82 93.1719 300.43 93.4609 301.852 94.0391C303.273 94.6172 304.477 95.4453 305.461 96.5234C306.461 97.6016 307.219 98.9062 307.734 100.438C308.266 101.969 308.531 103.688 308.531 105.594V108.805H287.812V103.859H300.82V103.25C300.836 102.406 300.688 101.688 300.375 101.094C300.078 100.5 299.641 100.047 299.062 99.7344C298.484 99.4219 297.781 99.2656 296.953 99.2656C296.094 99.2656 295.383 99.4531 294.82 99.8281C294.273 100.203 293.844 100.719 293.531 101.375C293.234 102.016 293.023 102.758 292.898 103.602C292.773 104.445 292.711 105.336 292.711 106.273V107.164C292.711 108.102 292.836 108.953 293.086 109.719C293.352 110.484 293.727 111.141 294.211 111.688C294.711 112.219 295.305 112.633 295.992 112.93C296.695 113.227 297.492 113.375 298.383 113.375C299.461 113.375 300.523 113.172 301.57 112.766C302.617 112.359 303.516 111.688 304.266 110.75L307.852 115.016C307.336 115.75 306.602 116.461 305.648 117.148C304.711 117.836 303.586 118.398 302.273 118.836C300.961 119.258 299.492 119.469 297.867 119.469ZM319.5 99.0547V119H311.602V93.6406H319.008L319.5 99.0547ZM318.562 105.453L316.711 105.5C316.711 103.562 316.945 101.836 317.414 100.32C317.883 98.7891 318.547 97.4922 319.406 96.4297C320.266 95.3672 321.289 94.5625 322.477 94.0156C323.68 93.4531 325.016 93.1719 326.484 93.1719C327.656 93.1719 328.727 93.3438 329.695 93.6875C330.68 94.0312 331.523 94.5859 332.227 95.3516C332.945 96.1172 333.492 97.1328 333.867 98.3984C334.258 99.6484 334.453 101.195 334.453 103.039V119H326.508V103.016C326.508 102 326.367 101.227 326.086 100.695C325.805 100.148 325.398 99.7734 324.867 99.5703C324.336 99.3672 323.688 99.2656 322.922 99.2656C322.109 99.2656 321.422 99.4219 320.859 99.7344C320.297 100.047 319.844 100.484 319.5 101.047C319.172 101.594 318.93 102.242 318.773 102.992C318.633 103.742 318.562 104.562 318.562 105.453ZM352.195 93.6406V99.125H336.914V93.6406H352.195ZM340.125 87.3359H348.023V110.727C348.023 111.398 348.102 111.922 348.258 112.297C348.414 112.656 348.68 112.914 349.055 113.07C349.445 113.211 349.961 113.281 350.602 113.281C351.055 113.281 351.43 113.273 351.727 113.258C352.023 113.227 352.305 113.188 352.57 113.141V118.789C351.898 119.008 351.195 119.172 350.461 119.281C349.727 119.406 348.945 119.469 348.117 119.469C346.43 119.469 344.984 119.203 343.781 118.672C342.594 118.141 341.688 117.305 341.062 116.164C340.438 115.023 340.125 113.539 340.125 111.711V87.3359Z" fill="black"/>
<path d="M1134 0H1348C1356.28 0 1363 6.71573 1363 15V148C1363 156.284 1356.28 163 1348 163H1134V0Z" fill="#80C6DA"/>
<path d="M1212.5 117.5L1212.5 45.5L1284.5 45.5L1284.5 117.5L1212.5 117.5Z" fill="white" fill-opacity="0.01"/>
<path d="M1221.5 81.5125L1221.5 108.5L1275.5 108.5L1275.5 81.5" stroke="white" stroke-width="7.24" stroke-linecap="round" stroke-linejoin="round"/>
<path d="M1262 68L1248.5 54.5L1235 68" stroke="white" stroke-width="7.24" stroke-linecap="round" stroke-linejoin="round"/>
<path d="M1248.49 93.4999L1248.49 54.5" stroke="white" stroke-width="7.24" stroke-linecap="round" stroke-linejoin="round"/>
</svg>
