<svg width="1363" height="163" viewBox="0 0 1363 163" fill="none" xmlns="http://www.w3.org/2000/svg">
<path d="M0 15C0 6.71573 6.71573 0 15 0H37V163H15C6.71573 163 0 156.284 0 148V15Z" fill="#424242"/>
<rect width="1097" height="163" transform="translate(37)" fill="#F0F0F0"/>
<path d="M96.1289 43.9375H99.1055L103.488 56.4648L107.871 43.9375H110.848L104.684 61H102.293L96.1289 43.9375ZM94.5234 43.9375H97.4883L98.0273 56.1484V61H94.5234V43.9375ZM109.488 43.9375H112.465V61H108.949V56.1484L109.488 43.9375ZM118.898 48.3203V61H115.512V48.3203H118.898ZM115.301 45.0156C115.301 44.5234 115.473 44.1172 115.816 43.7969C116.16 43.4766 116.621 43.3164 117.199 43.3164C117.77 43.3164 118.227 43.4766 118.57 43.7969C118.922 44.1172 119.098 44.5234 119.098 45.0156C119.098 45.5078 118.922 45.9141 118.57 46.2344C118.227 46.5547 117.77 46.7148 117.199 46.7148C116.621 46.7148 116.16 46.5547 115.816 46.2344C115.473 45.9141 115.301 45.5078 115.301 45.0156ZM124.992 51.0273V61H121.617V48.3203H124.781L124.992 51.0273ZM124.5 54.2148H123.586C123.586 53.2773 123.707 52.4336 123.949 51.6836C124.191 50.9258 124.531 50.2812 124.969 49.75C125.406 49.2109 125.926 48.8008 126.527 48.5195C127.137 48.2305 127.816 48.0859 128.566 48.0859C129.16 48.0859 129.703 48.1719 130.195 48.3438C130.688 48.5156 131.109 48.7891 131.461 49.1641C131.82 49.5391 132.094 50.0352 132.281 50.6523C132.477 51.2695 132.574 52.0234 132.574 52.9141V61H129.176V52.9023C129.176 52.3398 129.098 51.9023 128.941 51.5898C128.785 51.2773 128.555 51.0586 128.25 50.9336C127.953 50.8008 127.586 50.7344 127.148 50.7344C126.695 50.7344 126.301 50.8242 125.965 51.0039C125.637 51.1836 125.363 51.4336 125.145 51.7539C124.934 52.0664 124.773 52.4336 124.664 52.8555C124.555 53.2773 124.5 53.7305 124.5 54.2148ZM142.629 58.2344V43H146.027V61H142.969L142.629 58.2344ZM134.613 54.8125V54.5664C134.613 53.5977 134.723 52.7188 134.941 51.9297C135.16 51.1328 135.48 50.4492 135.902 49.8789C136.324 49.3086 136.844 48.8672 137.461 48.5547C138.078 48.2422 138.781 48.0859 139.57 48.0859C140.312 48.0859 140.961 48.2422 141.516 48.5547C142.078 48.8672 142.555 49.3125 142.945 49.8906C143.344 50.4609 143.664 51.1367 143.906 51.918C144.148 52.6914 144.324 53.5391 144.434 54.4609V55C144.324 55.8828 144.148 56.7031 143.906 57.4609C143.664 58.2188 143.344 58.8828 142.945 59.4531C142.555 60.0156 142.078 60.4531 141.516 60.7656C140.953 61.0781 140.297 61.2344 139.547 61.2344C138.758 61.2344 138.055 61.0742 137.438 60.7539C136.828 60.4336 136.312 59.9844 135.891 59.4062C135.477 58.8281 135.16 58.1484 134.941 57.3672C134.723 56.5859 134.613 55.7344 134.613 54.8125ZM137.988 54.5664V54.8125C137.988 55.3359 138.027 55.8242 138.105 56.2773C138.191 56.7305 138.328 57.1328 138.516 57.4844C138.711 57.8281 138.961 58.0977 139.266 58.293C139.578 58.4805 139.957 58.5742 140.402 58.5742C140.98 58.5742 141.457 58.4453 141.832 58.1875C142.207 57.9219 142.492 57.5586 142.688 57.0977C142.891 56.6367 143.008 56.1055 143.039 55.5039V53.9688C143.016 53.4766 142.945 53.0352 142.828 52.6445C142.719 52.2461 142.555 51.9062 142.336 51.625C142.125 51.3438 141.859 51.125 141.539 50.9688C141.227 50.8125 140.855 50.7344 140.426 50.7344C139.988 50.7344 139.613 50.8359 139.301 51.0391C138.988 51.2344 138.734 51.5039 138.539 51.8477C138.352 52.1914 138.211 52.5977 138.117 53.0664C138.031 53.5273 137.988 54.0273 137.988 54.5664ZM168.375 52.082V58.8438C168.109 59.1641 167.699 59.5117 167.145 59.8867C166.59 60.2539 165.875 60.5703 165 60.8359C164.125 61.1016 163.066 61.2344 161.824 61.2344C160.723 61.2344 159.719 61.0547 158.812 60.6953C157.906 60.3281 157.125 59.793 156.469 59.0898C155.82 58.3867 155.32 57.5273 154.969 56.5117C154.617 55.4883 154.441 54.3203 154.441 53.0078V51.9414C154.441 50.6289 154.609 49.4609 154.945 48.4375C155.289 47.4141 155.777 46.5508 156.41 45.8477C157.043 45.1445 157.797 44.6094 158.672 44.2422C159.547 43.875 160.52 43.6914 161.59 43.6914C163.074 43.6914 164.293 43.9336 165.246 44.418C166.199 44.8945 166.926 45.5586 167.426 46.4102C167.934 47.2539 168.246 48.2227 168.363 49.3164H164.953C164.867 48.7383 164.703 48.2344 164.461 47.8047C164.219 47.375 163.871 47.0391 163.418 46.7969C162.973 46.5547 162.395 46.4336 161.684 46.4336C161.098 46.4336 160.574 46.5547 160.113 46.7969C159.66 47.0312 159.277 47.3789 158.965 47.8398C158.652 48.3008 158.414 48.8711 158.25 49.5508C158.086 50.2305 158.004 51.0195 158.004 51.918V53.0078C158.004 53.8984 158.09 54.6875 158.262 55.375C158.434 56.0547 158.688 56.6289 159.023 57.0977C159.367 57.5586 159.789 57.9062 160.289 58.1406C160.789 58.375 161.371 58.4922 162.035 58.4922C162.59 58.4922 163.051 58.4453 163.418 58.3516C163.793 58.2578 164.094 58.1445 164.32 58.0117C164.555 57.8711 164.734 57.7383 164.859 57.6133V54.5898H161.648V52.082H168.375ZM178.5 57.9648V48.3203H181.875V61H178.699L178.5 57.9648ZM178.875 55.3633L179.871 55.3398C179.871 56.1836 179.773 56.9688 179.578 57.6953C179.383 58.4141 179.09 59.0391 178.699 59.5703C178.309 60.0938 177.816 60.5039 177.223 60.8008C176.629 61.0898 175.93 61.2344 175.125 61.2344C174.508 61.2344 173.938 61.1484 173.414 60.9766C172.898 60.7969 172.453 60.5195 172.078 60.1445C171.711 59.7617 171.422 59.2734 171.211 58.6797C171.008 58.0781 170.906 57.3555 170.906 56.5117V48.3203H174.281V56.5352C174.281 56.9102 174.324 57.2266 174.41 57.4844C174.504 57.7422 174.633 57.9531 174.797 58.1172C174.961 58.2812 175.152 58.3984 175.371 58.4688C175.598 58.5391 175.848 58.5742 176.121 58.5742C176.816 58.5742 177.363 58.4336 177.762 58.1523C178.168 57.8711 178.453 57.4883 178.617 57.0039C178.789 56.5117 178.875 55.9648 178.875 55.3633ZM191.297 58.1406V52.4922C191.297 52.0859 191.23 51.7383 191.098 51.4492C190.965 51.1523 190.758 50.9219 190.477 50.7578C190.203 50.5938 189.848 50.5117 189.41 50.5117C189.035 50.5117 188.711 50.5781 188.438 50.7109C188.164 50.8359 187.953 51.0195 187.805 51.2617C187.656 51.4961 187.582 51.7734 187.582 52.0938H184.207C184.207 51.5547 184.332 51.043 184.582 50.5586C184.832 50.0742 185.195 49.6484 185.672 49.2812C186.148 48.9062 186.715 48.6133 187.371 48.4023C188.035 48.1914 188.777 48.0859 189.598 48.0859C190.582 48.0859 191.457 48.25 192.223 48.5781C192.988 48.9062 193.59 49.3984 194.027 50.0547C194.473 50.7109 194.695 51.5312 194.695 52.5156V57.9414C194.695 58.6367 194.738 59.207 194.824 59.6523C194.91 60.0898 195.035 60.4727 195.199 60.8008V61H191.789C191.625 60.6562 191.5 60.2266 191.414 59.7109C191.336 59.1875 191.297 58.6641 191.297 58.1406ZM191.742 53.2773L191.766 55.1875H189.879C189.434 55.1875 189.047 55.2383 188.719 55.3398C188.391 55.4414 188.121 55.5859 187.91 55.7734C187.699 55.9531 187.543 56.1641 187.441 56.4062C187.348 56.6484 187.301 56.9141 187.301 57.2031C187.301 57.4922 187.367 57.7539 187.5 57.9883C187.633 58.2148 187.824 58.3945 188.074 58.5273C188.324 58.6523 188.617 58.7148 188.953 58.7148C189.461 58.7148 189.902 58.6133 190.277 58.4102C190.652 58.207 190.941 57.957 191.145 57.6602C191.355 57.3633 191.465 57.082 191.473 56.8164L192.363 58.2461C192.238 58.5664 192.066 58.8984 191.848 59.2422C191.637 59.5859 191.367 59.9102 191.039 60.2148C190.711 60.5117 190.316 60.7578 189.855 60.9531C189.395 61.1406 188.848 61.2344 188.215 61.2344C187.41 61.2344 186.68 61.0742 186.023 60.7539C185.375 60.4258 184.859 59.9766 184.477 59.4062C184.102 58.8281 183.914 58.1719 183.914 57.4375C183.914 56.7734 184.039 56.1836 184.289 55.668C184.539 55.1523 184.906 54.7188 185.391 54.3672C185.883 54.0078 186.496 53.7383 187.23 53.5586C187.965 53.3711 188.816 53.2773 189.785 53.2773H191.742ZM200.672 51.0859V61H197.297V48.3203H200.473L200.672 51.0859ZM204.492 48.2383L204.434 51.3672C204.27 51.3438 204.07 51.3242 203.836 51.3086C203.609 51.2852 203.402 51.2734 203.215 51.2734C202.738 51.2734 202.324 51.3359 201.973 51.4609C201.629 51.5781 201.34 51.7539 201.105 51.9883C200.879 52.2227 200.707 52.5078 200.59 52.8438C200.48 53.1797 200.418 53.5625 200.402 53.9922L199.723 53.7812C199.723 52.9609 199.805 52.207 199.969 51.5195C200.133 50.8242 200.371 50.2188 200.684 49.7031C201.004 49.1875 201.395 48.7891 201.855 48.5078C202.316 48.2266 202.844 48.0859 203.438 48.0859C203.625 48.0859 203.816 48.1016 204.012 48.1328C204.207 48.1562 204.367 48.1914 204.492 48.2383ZM213.34 58.2344V43H216.738V61H213.68L213.34 58.2344ZM205.324 54.8125V54.5664C205.324 53.5977 205.434 52.7188 205.652 51.9297C205.871 51.1328 206.191 50.4492 206.613 49.8789C207.035 49.3086 207.555 48.8672 208.172 48.5547C208.789 48.2422 209.492 48.0859 210.281 48.0859C211.023 48.0859 211.672 48.2422 212.227 48.5547C212.789 48.8672 213.266 49.3125 213.656 49.8906C214.055 50.4609 214.375 51.1367 214.617 51.918C214.859 52.6914 215.035 53.5391 215.145 54.4609V55C215.035 55.8828 214.859 56.7031 214.617 57.4609C214.375 58.2188 214.055 58.8828 213.656 59.4531C213.266 60.0156 212.789 60.4531 212.227 60.7656C211.664 61.0781 211.008 61.2344 210.258 61.2344C209.469 61.2344 208.766 61.0742 208.148 60.7539C207.539 60.4336 207.023 59.9844 206.602 59.4062C206.188 58.8281 205.871 58.1484 205.652 57.3672C205.434 56.5859 205.324 55.7344 205.324 54.8125ZM208.699 54.5664V54.8125C208.699 55.3359 208.738 55.8242 208.816 56.2773C208.902 56.7305 209.039 57.1328 209.227 57.4844C209.422 57.8281 209.672 58.0977 209.977 58.293C210.289 58.4805 210.668 58.5742 211.113 58.5742C211.691 58.5742 212.168 58.4453 212.543 58.1875C212.918 57.9219 213.203 57.5586 213.398 57.0977C213.602 56.6367 213.719 56.1055 213.75 55.5039V53.9688C213.727 53.4766 213.656 53.0352 213.539 52.6445C213.43 52.2461 213.266 51.9062 213.047 51.625C212.836 51.3438 212.57 51.125 212.25 50.9688C211.938 50.8125 211.566 50.7344 211.137 50.7344C210.699 50.7344 210.324 50.8359 210.012 51.0391C209.699 51.2344 209.445 51.5039 209.25 51.8477C209.062 52.1914 208.922 52.5977 208.828 53.0664C208.742 53.5273 208.699 54.0273 208.699 54.5664Z" fill="#888888"/>
<path d="M109.219 107.422H100.734V101.07H109.219C110.375 101.07 111.312 100.875 112.031 100.484C112.75 100.094 113.273 99.5547 113.602 98.8672C113.945 98.1641 114.117 97.375 114.117 96.5C114.117 95.5625 113.945 94.6953 113.602 93.8984C113.273 93.1016 112.75 92.4609 112.031 91.9766C111.312 91.4766 110.375 91.2266 109.219 91.2266H103.828V119H95.6016V84.875H109.219C111.953 84.875 114.305 85.375 116.273 86.375C118.258 87.375 119.781 88.75 120.844 90.5C121.906 92.2344 122.438 94.2188 122.438 96.4531C122.438 98.6562 121.906 100.578 120.844 102.219C119.781 103.859 118.258 105.141 116.273 106.062C114.305 106.969 111.953 107.422 109.219 107.422ZM134.461 99.9219V119H126.562V93.6406H133.945L134.461 99.9219ZM141.961 93.4531L141.82 100.789C141.508 100.758 141.086 100.719 140.555 100.672C140.023 100.625 139.578 100.602 139.219 100.602C138.297 100.602 137.5 100.711 136.828 100.93C136.172 101.133 135.625 101.445 135.188 101.867C134.766 102.273 134.453 102.789 134.25 103.414C134.062 104.039 133.977 104.766 133.992 105.594L132.562 104.656C132.562 102.953 132.727 101.406 133.055 100.016C133.398 98.6094 133.883 97.3984 134.508 96.3828C135.133 95.3516 135.891 94.5625 136.781 94.0156C137.672 93.4531 138.672 93.1719 139.781 93.1719C140.172 93.1719 140.555 93.1953 140.93 93.2422C141.32 93.2891 141.664 93.3594 141.961 93.4531ZM142.852 106.578V106.086C142.852 104.227 143.117 102.516 143.648 100.953C144.18 99.375 144.961 98.0078 145.992 96.8516C147.023 95.6953 148.297 94.7969 149.812 94.1562C151.328 93.5 153.078 93.1719 155.062 93.1719C157.062 93.1719 158.82 93.5 160.336 94.1562C161.867 94.7969 163.148 95.6953 164.18 96.8516C165.211 98.0078 165.992 99.375 166.523 100.953C167.055 102.516 167.32 104.227 167.32 106.086V106.578C167.32 108.422 167.055 110.133 166.523 111.711C165.992 113.273 165.211 114.641 164.18 115.812C163.148 116.969 161.875 117.867 160.359 118.508C158.844 119.148 157.094 119.469 155.109 119.469C153.125 119.469 151.367 119.148 149.836 118.508C148.305 117.867 147.023 116.969 145.992 115.812C144.961 114.641 144.18 113.273 143.648 111.711C143.117 110.133 142.852 108.422 142.852 106.578ZM150.75 106.086V106.578C150.75 107.531 150.82 108.422 150.961 109.25C151.102 110.078 151.336 110.805 151.664 111.43C151.992 112.039 152.438 112.516 153 112.859C153.562 113.203 154.266 113.375 155.109 113.375C155.938 113.375 156.625 113.203 157.172 112.859C157.734 112.516 158.18 112.039 158.508 111.43C158.836 110.805 159.07 110.078 159.211 109.25C159.352 108.422 159.422 107.531 159.422 106.578V106.086C159.422 105.164 159.352 104.297 159.211 103.484C159.07 102.656 158.836 101.93 158.508 101.305C158.18 100.664 157.734 100.164 157.172 99.8047C156.609 99.4453 155.906 99.2656 155.062 99.2656C154.234 99.2656 153.539 99.4453 152.977 99.8047C152.43 100.164 151.992 100.664 151.664 101.305C151.336 101.93 151.102 102.656 150.961 103.484C150.82 104.297 150.75 105.164 150.75 106.086ZM171.422 93.6406H179.344V119.82C179.344 121.852 178.953 123.562 178.172 124.953C177.391 126.359 176.273 127.422 174.82 128.141C173.367 128.875 171.633 129.242 169.617 129.242C168.945 129.242 168.328 129.211 167.766 129.148C167.188 129.102 166.555 129 165.867 128.844V122.867C166.273 122.93 166.648 122.977 166.992 123.008C167.336 123.055 167.711 123.078 168.117 123.078C168.836 123.078 169.438 122.961 169.922 122.727C170.406 122.492 170.773 122.133 171.023 121.648C171.289 121.164 171.422 120.555 171.422 119.82V93.6406ZM170.836 87.1016C170.836 85.9766 171.242 85.0547 172.055 84.3359C172.867 83.6172 173.922 83.2578 175.219 83.2578C176.516 83.2578 177.57 83.6172 178.383 84.3359C179.195 85.0547 179.602 85.9766 179.602 87.1016C179.602 88.2266 179.195 89.1484 178.383 89.8672C177.57 90.5859 176.516 90.9453 175.219 90.9453C173.922 90.9453 172.867 90.5859 172.055 89.8672C171.242 89.1484 170.836 88.2266 170.836 87.1016ZM196.102 119.469C194.039 119.469 192.195 119.148 190.57 118.508C188.945 117.852 187.57 116.953 186.445 115.812C185.336 114.672 184.484 113.359 183.891 111.875C183.312 110.391 183.023 108.82 183.023 107.164V106.273C183.023 104.414 183.281 102.695 183.797 101.117C184.312 99.5234 185.078 98.1328 186.094 96.9453C187.109 95.7578 188.383 94.8359 189.914 94.1797C191.445 93.5078 193.227 93.1719 195.258 93.1719C197.055 93.1719 198.664 93.4609 200.086 94.0391C201.508 94.6172 202.711 95.4453 203.695 96.5234C204.695 97.6016 205.453 98.9062 205.969 100.438C206.5 101.969 206.766 103.688 206.766 105.594V108.805H186.047V103.859H199.055V103.25C199.07 102.406 198.922 101.688 198.609 101.094C198.312 100.5 197.875 100.047 197.297 99.7344C196.719 99.4219 196.016 99.2656 195.188 99.2656C194.328 99.2656 193.617 99.4531 193.055 99.8281C192.508 100.203 192.078 100.719 191.766 101.375C191.469 102.016 191.258 102.758 191.133 103.602C191.008 104.445 190.945 105.336 190.945 106.273V107.164C190.945 108.102 191.07 108.953 191.32 109.719C191.586 110.484 191.961 111.141 192.445 111.688C192.945 112.219 193.539 112.633 194.227 112.93C194.93 113.227 195.727 113.375 196.617 113.375C197.695 113.375 198.758 113.172 199.805 112.766C200.852 112.359 201.75 111.688 202.5 110.75L206.086 115.016C205.57 115.75 204.836 116.461 203.883 117.148C202.945 117.836 201.82 118.398 200.508 118.836C199.195 119.258 197.727 119.469 196.102 119.469ZM220.688 113.375C221.422 113.375 222.047 113.242 222.562 112.977C223.094 112.695 223.492 112.305 223.758 111.805C224.039 111.289 224.172 110.672 224.156 109.953H231.586C231.602 111.859 231.133 113.531 230.18 114.969C229.242 116.391 227.961 117.5 226.336 118.297C224.727 119.078 222.906 119.469 220.875 119.469C218.891 119.469 217.156 119.148 215.672 118.508C214.188 117.852 212.945 116.945 211.945 115.789C210.961 114.617 210.219 113.25 209.719 111.688C209.234 110.125 208.992 108.43 208.992 106.602V106.062C208.992 104.234 209.234 102.539 209.719 100.977C210.219 99.3984 210.961 98.0312 211.945 96.875C212.945 95.7031 214.18 94.7969 215.648 94.1562C217.133 93.5 218.859 93.1719 220.828 93.1719C222.938 93.1719 224.797 93.5703 226.406 94.3672C228.031 95.1641 229.305 96.3203 230.227 97.8359C231.148 99.3516 231.602 101.188 231.586 103.344H224.156C224.172 102.578 224.055 101.891 223.805 101.281C223.555 100.672 223.164 100.188 222.633 99.8281C222.117 99.4531 221.453 99.2656 220.641 99.2656C219.828 99.2656 219.172 99.4453 218.672 99.8047C218.172 100.164 217.789 100.664 217.523 101.305C217.273 101.93 217.102 102.648 217.008 103.461C216.93 104.273 216.891 105.141 216.891 106.062V106.602C216.891 107.539 216.93 108.422 217.008 109.25C217.102 110.062 217.281 110.781 217.547 111.406C217.812 112.016 218.195 112.5 218.695 112.859C219.195 113.203 219.859 113.375 220.688 113.375ZM248.32 93.6406V99.125H233.039V93.6406H248.32ZM236.25 87.3359H244.148V110.727C244.148 111.398 244.227 111.922 244.383 112.297C244.539 112.656 244.805 112.914 245.18 113.07C245.57 113.211 246.086 113.281 246.727 113.281C247.18 113.281 247.555 113.273 247.852 113.258C248.148 113.227 248.43 113.188 248.695 113.141V118.789C248.023 119.008 247.32 119.172 246.586 119.281C245.852 119.406 245.07 119.469 244.242 119.469C242.555 119.469 241.109 119.203 239.906 118.672C238.719 118.141 237.812 117.305 237.188 116.164C236.562 115.023 236.25 113.539 236.25 111.711V87.3359ZM292.664 101.258V102.641C292.664 105.25 292.297 107.594 291.562 109.672C290.844 111.734 289.82 113.5 288.492 114.969C287.164 116.422 285.594 117.539 283.781 118.32C281.969 119.086 279.969 119.469 277.781 119.469C275.578 119.469 273.562 119.086 271.734 118.32C269.922 117.539 268.344 116.422 267 114.969C265.672 113.5 264.641 111.734 263.906 109.672C263.188 107.594 262.828 105.25 262.828 102.641V101.258C262.828 98.6484 263.188 96.3047 263.906 94.2266C264.641 92.1484 265.664 90.3828 266.977 88.9297C268.305 87.4609 269.875 86.3438 271.688 85.5781C273.516 84.7969 275.531 84.4062 277.734 84.4062C279.922 84.4062 281.922 84.7969 283.734 85.5781C285.562 86.3438 287.141 87.4609 288.469 88.9297C289.797 90.3828 290.828 92.1484 291.562 94.2266C292.297 96.3047 292.664 98.6484 292.664 101.258ZM284.32 102.641V101.211C284.32 99.5234 284.172 98.0391 283.875 96.7578C283.594 95.4609 283.172 94.375 282.609 93.5C282.047 92.625 281.352 91.9688 280.523 91.5312C279.711 91.0781 278.781 90.8516 277.734 90.8516C276.641 90.8516 275.688 91.0781 274.875 91.5312C274.062 91.9688 273.383 92.625 272.836 93.5C272.289 94.375 271.875 95.4609 271.594 96.7578C271.328 98.0391 271.195 99.5234 271.195 101.211V102.641C271.195 104.312 271.328 105.797 271.594 107.094C271.875 108.375 272.289 109.461 272.836 110.352C273.398 111.242 274.086 111.914 274.898 112.367C275.727 112.82 276.688 113.047 277.781 113.047C278.828 113.047 279.758 112.82 280.57 112.367C281.383 111.914 282.062 111.242 282.609 110.352C283.172 109.461 283.594 108.375 283.875 107.094C284.172 105.797 284.32 104.312 284.32 102.641ZM305.695 113.586L310.688 93.6406H319.008L310.711 119H305.789L305.695 113.586ZM302.742 93.6406L307.664 113.586L307.617 119H302.672L294.398 93.6406H302.742ZM333.305 119.469C331.242 119.469 329.398 119.148 327.773 118.508C326.148 117.852 324.773 116.953 323.648 115.812C322.539 114.672 321.688 113.359 321.094 111.875C320.516 110.391 320.227 108.82 320.227 107.164V106.273C320.227 104.414 320.484 102.695 321 101.117C321.516 99.5234 322.281 98.1328 323.297 96.9453C324.312 95.7578 325.586 94.8359 327.117 94.1797C328.648 93.5078 330.43 93.1719 332.461 93.1719C334.258 93.1719 335.867 93.4609 337.289 94.0391C338.711 94.6172 339.914 95.4453 340.898 96.5234C341.898 97.6016 342.656 98.9062 343.172 100.438C343.703 101.969 343.969 103.688 343.969 105.594V108.805H323.25V103.859H336.258V103.25C336.273 102.406 336.125 101.688 335.812 101.094C335.516 100.5 335.078 100.047 334.5 99.7344C333.922 99.4219 333.219 99.2656 332.391 99.2656C331.531 99.2656 330.82 99.4531 330.258 99.8281C329.711 100.203 329.281 100.719 328.969 101.375C328.672 102.016 328.461 102.758 328.336 103.602C328.211 104.445 328.148 105.336 328.148 106.273V107.164C328.148 108.102 328.273 108.953 328.523 109.719C328.789 110.484 329.164 111.141 329.648 111.688C330.148 112.219 330.742 112.633 331.43 112.93C332.133 113.227 332.93 113.375 333.82 113.375C334.898 113.375 335.961 113.172 337.008 112.766C338.055 112.359 338.953 111.688 339.703 110.75L343.289 115.016C342.773 115.75 342.039 116.461 341.086 117.148C340.148 117.836 339.023 118.398 337.711 118.836C336.398 119.258 334.93 119.469 333.305 119.469ZM355.148 99.9219V119H347.25V93.6406H354.633L355.148 99.9219ZM362.648 93.4531L362.508 100.789C362.195 100.758 361.773 100.719 361.242 100.672C360.711 100.625 360.266 100.602 359.906 100.602C358.984 100.602 358.188 100.711 357.516 100.93C356.859 101.133 356.312 101.445 355.875 101.867C355.453 102.273 355.141 102.789 354.938 103.414C354.75 104.039 354.664 104.766 354.68 105.594L353.25 104.656C353.25 102.953 353.414 101.406 353.742 100.016C354.086 98.6094 354.57 97.3984 355.195 96.3828C355.82 95.3516 356.578 94.5625 357.469 94.0156C358.359 93.4531 359.359 93.1719 360.469 93.1719C360.859 93.1719 361.242 93.1953 361.617 93.2422C362.008 93.2891 362.352 93.3594 362.648 93.4531ZM374.93 113.586L379.922 93.6406H388.242L379.945 119H375.023L374.93 113.586ZM371.977 93.6406L376.898 113.586L376.852 119H371.906L363.633 93.6406H371.977ZM398.93 93.6406V119H391.008V93.6406H398.93ZM390.539 87.1016C390.539 85.9766 390.945 85.0547 391.758 84.3359C392.57 83.6172 393.625 83.2578 394.922 83.2578C396.219 83.2578 397.273 83.6172 398.086 84.3359C398.898 85.0547 399.305 85.9766 399.305 87.1016C399.305 88.2266 398.898 89.1484 398.086 89.8672C397.273 90.5859 396.219 90.9453 394.922 90.9453C393.625 90.9453 392.57 90.5859 391.758 89.8672C390.945 89.1484 390.539 88.2266 390.539 87.1016ZM416.086 119.469C414.023 119.469 412.18 119.148 410.555 118.508C408.93 117.852 407.555 116.953 406.43 115.812C405.32 114.672 404.469 113.359 403.875 111.875C403.297 110.391 403.008 108.82 403.008 107.164V106.273C403.008 104.414 403.266 102.695 403.781 101.117C404.297 99.5234 405.062 98.1328 406.078 96.9453C407.094 95.7578 408.367 94.8359 409.898 94.1797C411.43 93.5078 413.211 93.1719 415.242 93.1719C417.039 93.1719 418.648 93.4609 420.07 94.0391C421.492 94.6172 422.695 95.4453 423.68 96.5234C424.68 97.6016 425.438 98.9062 425.953 100.438C426.484 101.969 426.75 103.688 426.75 105.594V108.805H406.031V103.859H419.039V103.25C419.055 102.406 418.906 101.688 418.594 101.094C418.297 100.5 417.859 100.047 417.281 99.7344C416.703 99.4219 416 99.2656 415.172 99.2656C414.312 99.2656 413.602 99.4531 413.039 99.8281C412.492 100.203 412.062 100.719 411.75 101.375C411.453 102.016 411.242 102.758 411.117 103.602C410.992 104.445 410.93 105.336 410.93 106.273V107.164C410.93 108.102 411.055 108.953 411.305 109.719C411.57 110.484 411.945 111.141 412.43 111.688C412.93 112.219 413.523 112.633 414.211 112.93C414.914 113.227 415.711 113.375 416.602 113.375C417.68 113.375 418.742 113.172 419.789 112.766C420.836 112.359 421.734 111.688 422.484 110.75L426.07 115.016C425.555 115.75 424.82 116.461 423.867 117.148C422.93 117.836 421.805 118.398 420.492 118.836C419.18 119.258 417.711 119.469 416.086 119.469ZM437.672 111.453L442.359 93.6406H447.305L445.547 102.57L440.906 119H436.945L437.672 111.453ZM435.82 93.6406L438.727 111.312L439.055 119H434.25L428.25 93.6406H435.82ZM451.477 110.938L454.406 93.6406H461.977L456.023 119H451.219L451.477 110.938ZM447.867 93.6406L452.602 111.406L453.328 119H449.32L444.773 102.617L443.086 93.6406H447.867Z" fill="black"/>
<path d="M1134 0H1348C1356.28 0 1363 6.71573 1363 15V148C1363 156.284 1356.28 163 1348 163H1134V0Z" fill="#80C6DA"/>
<path d="M1234.26 103.786H1262.74V109.357H1234.26V103.786ZM1239.96 114.929H1257.04V120.5H1239.96V114.929ZM1248.5 42.5C1240.95 42.5 1233.71 45.4349 1228.37 50.6592C1223.03 55.8834 1220.03 62.969 1220.03 70.3571C1219.84 74.4057 1220.63 78.4412 1222.34 82.1315C1224.05 85.8219 1226.64 89.0616 1229.88 91.5843C1232.73 94.175 1234.26 95.6514 1234.26 98.2143H1239.96C1239.96 93.0886 1236.8 90.2193 1233.72 87.4614C1231.06 85.4676 1228.94 82.8658 1227.55 79.8838C1226.15 76.9019 1225.53 73.6308 1225.72 70.3571C1225.72 64.4466 1228.12 58.7781 1232.39 54.5988C1236.67 50.4194 1242.46 48.0714 1248.5 48.0714C1254.54 48.0714 1260.33 50.4194 1264.61 54.5988C1268.88 58.7781 1271.28 64.4466 1271.28 70.3571C1271.47 73.6333 1270.84 76.9059 1269.44 79.888C1268.04 82.8701 1265.92 85.4706 1263.25 87.4614C1260.2 90.2471 1257.04 93.0329 1257.04 98.2143H1262.74C1262.74 95.6514 1264.25 94.175 1267.12 91.5564C1270.36 89.0381 1272.94 85.8031 1274.66 82.1176C1276.37 78.4321 1277.16 74.4014 1276.97 70.3571C1276.97 66.6989 1276.24 63.0765 1274.81 59.6967C1273.37 56.3169 1271.28 53.2459 1268.63 50.6592C1265.99 48.0724 1262.85 46.0205 1259.4 44.6205C1255.94 43.2205 1252.24 42.5 1248.5 42.5Z" fill="white"/>
</svg>
